<mxfile host="app.diagrams.net" agent="Mozilla/5.0 (Macintosh; Intel Mac OS X 10_15_7) AppleWebKit/537.36 (KHTML, like Gecko) Chrome/127.0.0.0 Safari/537.36" version="24.7.7">
  <diagram name="第 1 页" id="eP3plqkTgA6YBgwC_qdl">
    <mxGraphModel dx="1735" dy="1102" grid="1" gridSize="10" guides="1" tooltips="1" connect="1" arrows="1" fold="1" page="1" pageScale="1" pageWidth="827" pageHeight="1169" math="0" shadow="0">
      <root>
        <mxCell id="0" />
        <mxCell id="1" parent="0" />
        <mxCell id="zIC0fdWN-UC4whQMhTlF-7" value="" style="rounded=0;whiteSpace=wrap;html=1;dashed=1;dashPattern=12 12;fillColor=#dae8fc;strokeColor=#6c8ebf;" vertex="1" parent="1">
          <mxGeometry x="190" y="160" width="480" height="200" as="geometry" />
        </mxCell>
        <mxCell id="zIC0fdWN-UC4whQMhTlF-1" value="Input" style="rounded=0;whiteSpace=wrap;html=1;fontSize=18;fontStyle=1;fillColor=#f5f5f5;fontColor=#333333;strokeColor=#666666;" vertex="1" parent="1">
          <mxGeometry x="54" y="160" width="120" height="200" as="geometry" />
        </mxCell>
        <mxCell id="zIC0fdWN-UC4whQMhTlF-5" style="edgeStyle=orthogonalEdgeStyle;rounded=0;orthogonalLoop=1;jettySize=auto;html=1;entryX=0;entryY=0.5;entryDx=0;entryDy=0;" edge="1" parent="1" source="zIC0fdWN-UC4whQMhTlF-2" target="zIC0fdWN-UC4whQMhTlF-3">
          <mxGeometry relative="1" as="geometry" />
        </mxCell>
        <mxCell id="zIC0fdWN-UC4whQMhTlF-2" value="特征距离计算" style="rounded=0;whiteSpace=wrap;html=1;fontSize=16;" vertex="1" parent="1">
          <mxGeometry x="230" y="205" width="120" height="110" as="geometry" />
        </mxCell>
        <mxCell id="zIC0fdWN-UC4whQMhTlF-6" style="edgeStyle=orthogonalEdgeStyle;rounded=0;orthogonalLoop=1;jettySize=auto;html=1;entryX=0;entryY=0.5;entryDx=0;entryDy=0;" edge="1" parent="1" source="zIC0fdWN-UC4whQMhTlF-3" target="zIC0fdWN-UC4whQMhTlF-4">
          <mxGeometry relative="1" as="geometry" />
        </mxCell>
        <mxCell id="zIC0fdWN-UC4whQMhTlF-3" value="距离选择加权&amp;amp;相似度计算" style="rounded=0;whiteSpace=wrap;html=1;fontSize=16;" vertex="1" parent="1">
          <mxGeometry x="380" y="205" width="120" height="110" as="geometry" />
        </mxCell>
        <mxCell id="zIC0fdWN-UC4whQMhTlF-4" value="匈牙利匹配" style="rounded=0;whiteSpace=wrap;html=1;fontSize=16;" vertex="1" parent="1">
          <mxGeometry x="530" y="205" width="120" height="110" as="geometry" />
        </mxCell>
        <mxCell id="zIC0fdWN-UC4whQMhTlF-9" value="关联模块" style="text;html=1;align=center;verticalAlign=middle;resizable=0;points=[];autosize=1;strokeColor=none;fillColor=none;fontStyle=1;fontSize=20;" vertex="1" parent="1">
          <mxGeometry x="380" y="160" width="100" height="40" as="geometry" />
        </mxCell>
        <mxCell id="zIC0fdWN-UC4whQMhTlF-23" value="" style="rounded=0;whiteSpace=wrap;html=1;dashed=1;dashPattern=12 12;fillColor=#d5e8d4;strokeColor=#82b366;" vertex="1" parent="1">
          <mxGeometry x="689" y="160" width="811" height="200" as="geometry" />
        </mxCell>
        <mxCell id="zIC0fdWN-UC4whQMhTlF-24" style="edgeStyle=orthogonalEdgeStyle;rounded=0;orthogonalLoop=1;jettySize=auto;html=1;entryX=0;entryY=0.5;entryDx=0;entryDy=0;" edge="1" parent="1" target="zIC0fdWN-UC4whQMhTlF-27">
          <mxGeometry relative="1" as="geometry">
            <mxPoint x="849" y="259.9999999999999" as="sourcePoint" />
          </mxGeometry>
        </mxCell>
        <mxCell id="zIC0fdWN-UC4whQMhTlF-26" style="edgeStyle=orthogonalEdgeStyle;rounded=0;orthogonalLoop=1;jettySize=auto;html=1;entryX=0;entryY=0.5;entryDx=0;entryDy=0;" edge="1" parent="1" target="zIC0fdWN-UC4whQMhTlF-28">
          <mxGeometry relative="1" as="geometry">
            <mxPoint x="999" y="259.9999999999999" as="sourcePoint" />
          </mxGeometry>
        </mxCell>
        <mxCell id="zIC0fdWN-UC4whQMhTlF-29" value="速度模块" style="text;html=1;align=center;verticalAlign=middle;resizable=0;points=[];autosize=1;strokeColor=none;fillColor=none;fontStyle=1;fontSize=20;" vertex="1" parent="1">
          <mxGeometry x="1060" y="160" width="100" height="40" as="geometry" />
        </mxCell>
        <mxCell id="zIC0fdWN-UC4whQMhTlF-11" value="" style="shape=flexArrow;endArrow=classic;html=1;rounded=0;" edge="1" parent="1">
          <mxGeometry width="50" height="50" relative="1" as="geometry">
            <mxPoint x="660" y="257" as="sourcePoint" />
            <mxPoint x="710" y="257" as="targetPoint" />
          </mxGeometry>
        </mxCell>
        <mxCell id="zIC0fdWN-UC4whQMhTlF-10" value="跟踪结果" style="text;html=1;align=center;verticalAlign=middle;resizable=0;points=[];autosize=1;strokeColor=none;fillColor=none;fontStyle=1" vertex="1" parent="1">
          <mxGeometry x="650" y="220" width="70" height="30" as="geometry" />
        </mxCell>
        <mxCell id="zIC0fdWN-UC4whQMhTlF-38" style="edgeStyle=orthogonalEdgeStyle;rounded=0;orthogonalLoop=1;jettySize=auto;html=1;" edge="1" parent="1" source="zIC0fdWN-UC4whQMhTlF-33" target="zIC0fdWN-UC4whQMhTlF-35">
          <mxGeometry relative="1" as="geometry" />
        </mxCell>
        <mxCell id="zIC0fdWN-UC4whQMhTlF-33" value="视图匹配-2*1D" style="rounded=0;whiteSpace=wrap;html=1;fontSize=20;" vertex="1" parent="1">
          <mxGeometry x="730" y="200" width="160" height="50" as="geometry" />
        </mxCell>
        <mxCell id="zIC0fdWN-UC4whQMhTlF-39" style="edgeStyle=orthogonalEdgeStyle;rounded=0;orthogonalLoop=1;jettySize=auto;html=1;entryX=0;entryY=0.5;entryDx=0;entryDy=0;" edge="1" parent="1" source="zIC0fdWN-UC4whQMhTlF-34" target="zIC0fdWN-UC4whQMhTlF-35">
          <mxGeometry relative="1" as="geometry" />
        </mxCell>
        <mxCell id="zIC0fdWN-UC4whQMhTlF-34" value="特征图匹配-2D" style="rounded=0;whiteSpace=wrap;html=1;fontSize=20;" vertex="1" parent="1">
          <mxGeometry x="730" y="270" width="160" height="50" as="geometry" />
        </mxCell>
        <mxCell id="zIC0fdWN-UC4whQMhTlF-40" style="edgeStyle=orthogonalEdgeStyle;rounded=0;orthogonalLoop=1;jettySize=auto;html=1;entryX=0;entryY=0.5;entryDx=0;entryDy=0;" edge="1" parent="1" source="zIC0fdWN-UC4whQMhTlF-35" target="zIC0fdWN-UC4whQMhTlF-36">
          <mxGeometry relative="1" as="geometry" />
        </mxCell>
        <mxCell id="zIC0fdWN-UC4whQMhTlF-35" value="动静判断规则" style="rounded=0;whiteSpace=wrap;html=1;fontSize=20;" vertex="1" parent="1">
          <mxGeometry x="930" y="230" width="160" height="50" as="geometry" />
        </mxCell>
        <mxCell id="zIC0fdWN-UC4whQMhTlF-41" style="edgeStyle=orthogonalEdgeStyle;rounded=0;orthogonalLoop=1;jettySize=auto;html=1;entryX=0;entryY=0.5;entryDx=0;entryDy=0;" edge="1" parent="1" source="zIC0fdWN-UC4whQMhTlF-36" target="zIC0fdWN-UC4whQMhTlF-37">
          <mxGeometry relative="1" as="geometry" />
        </mxCell>
        <mxCell id="zIC0fdWN-UC4whQMhTlF-36" value="点云匹配-3D" style="rounded=0;whiteSpace=wrap;html=1;fontSize=20;" vertex="1" parent="1">
          <mxGeometry x="1120" y="230" width="160" height="50" as="geometry" />
        </mxCell>
        <mxCell id="zIC0fdWN-UC4whQMhTlF-37" value="多帧信号&amp;amp;滤波速度" style="rounded=0;whiteSpace=wrap;html=1;fontSize=20;" vertex="1" parent="1">
          <mxGeometry x="1310" y="230" width="180" height="50" as="geometry" />
        </mxCell>
        <mxCell id="zIC0fdWN-UC4whQMhTlF-43" value="Output" style="rounded=0;whiteSpace=wrap;html=1;fontSize=18;fontStyle=1;fillColor=#f5f5f5;fontColor=#333333;strokeColor=#666666;" vertex="1" parent="1">
          <mxGeometry x="1515" y="160" width="120" height="200" as="geometry" />
        </mxCell>
        <mxCell id="zIC0fdWN-UC4whQMhTlF-44" value="" style="rounded=0;whiteSpace=wrap;html=1;dashed=1;dashPattern=12 12;fillColor=#dae8fc;strokeColor=#6c8ebf;" vertex="1" parent="1">
          <mxGeometry x="190" y="400" width="480" height="200" as="geometry" />
        </mxCell>
        <mxCell id="zIC0fdWN-UC4whQMhTlF-45" value="Input" style="rounded=0;whiteSpace=wrap;html=1;fontSize=18;fontStyle=1;fillColor=#f5f5f5;fontColor=#333333;strokeColor=#666666;" vertex="1" parent="1">
          <mxGeometry x="54" y="400" width="120" height="200" as="geometry" />
        </mxCell>
        <mxCell id="zIC0fdWN-UC4whQMhTlF-46" style="edgeStyle=orthogonalEdgeStyle;rounded=0;orthogonalLoop=1;jettySize=auto;html=1;entryX=0;entryY=0.5;entryDx=0;entryDy=0;" edge="1" parent="1" source="zIC0fdWN-UC4whQMhTlF-47" target="zIC0fdWN-UC4whQMhTlF-49">
          <mxGeometry relative="1" as="geometry" />
        </mxCell>
        <mxCell id="zIC0fdWN-UC4whQMhTlF-47" value="特征距离计算" style="rounded=0;whiteSpace=wrap;html=1;fontSize=16;" vertex="1" parent="1">
          <mxGeometry x="230" y="445" width="120" height="110" as="geometry" />
        </mxCell>
        <mxCell id="zIC0fdWN-UC4whQMhTlF-48" style="edgeStyle=orthogonalEdgeStyle;rounded=0;orthogonalLoop=1;jettySize=auto;html=1;entryX=0;entryY=0.5;entryDx=0;entryDy=0;" edge="1" parent="1" source="zIC0fdWN-UC4whQMhTlF-49" target="zIC0fdWN-UC4whQMhTlF-50">
          <mxGeometry relative="1" as="geometry" />
        </mxCell>
        <mxCell id="zIC0fdWN-UC4whQMhTlF-49" value="learning模块" style="rounded=0;whiteSpace=wrap;html=1;fontSize=16;" vertex="1" parent="1">
          <mxGeometry x="380" y="445" width="120" height="110" as="geometry" />
        </mxCell>
        <mxCell id="zIC0fdWN-UC4whQMhTlF-50" value="匈牙利匹配" style="rounded=0;whiteSpace=wrap;html=1;fontSize=16;" vertex="1" parent="1">
          <mxGeometry x="530" y="445" width="120" height="110" as="geometry" />
        </mxCell>
        <mxCell id="zIC0fdWN-UC4whQMhTlF-51" value="关联模块" style="text;html=1;align=center;verticalAlign=middle;resizable=0;points=[];autosize=1;strokeColor=none;fillColor=none;fontStyle=1;fontSize=20;" vertex="1" parent="1">
          <mxGeometry x="380" y="400" width="100" height="40" as="geometry" />
        </mxCell>
        <mxCell id="zIC0fdWN-UC4whQMhTlF-52" value="" style="rounded=0;whiteSpace=wrap;html=1;dashed=1;dashPattern=12 12;fillColor=#d5e8d4;strokeColor=#82b366;" vertex="1" parent="1">
          <mxGeometry x="689" y="400" width="811" height="200" as="geometry" />
        </mxCell>
        <mxCell id="zIC0fdWN-UC4whQMhTlF-53" value="速度模块" style="text;html=1;align=center;verticalAlign=middle;resizable=0;points=[];autosize=1;strokeColor=none;fillColor=none;fontStyle=1;fontSize=20;" vertex="1" parent="1">
          <mxGeometry x="1060" y="400" width="100" height="40" as="geometry" />
        </mxCell>
        <mxCell id="zIC0fdWN-UC4whQMhTlF-54" value="" style="shape=flexArrow;endArrow=classic;html=1;rounded=0;" edge="1" parent="1">
          <mxGeometry width="50" height="50" relative="1" as="geometry">
            <mxPoint x="660" y="497" as="sourcePoint" />
            <mxPoint x="710" y="497" as="targetPoint" />
          </mxGeometry>
        </mxCell>
        <mxCell id="zIC0fdWN-UC4whQMhTlF-55" value="跟踪结果" style="text;html=1;align=center;verticalAlign=middle;resizable=0;points=[];autosize=1;strokeColor=none;fillColor=none;fontStyle=1" vertex="1" parent="1">
          <mxGeometry x="650" y="460" width="70" height="30" as="geometry" />
        </mxCell>
        <mxCell id="zIC0fdWN-UC4whQMhTlF-68" style="edgeStyle=orthogonalEdgeStyle;rounded=0;orthogonalLoop=1;jettySize=auto;html=1;entryX=0;entryY=0.5;entryDx=0;entryDy=0;" edge="1" parent="1" source="zIC0fdWN-UC4whQMhTlF-57" target="zIC0fdWN-UC4whQMhTlF-66">
          <mxGeometry relative="1" as="geometry" />
        </mxCell>
        <mxCell id="zIC0fdWN-UC4whQMhTlF-57" value="视图匹配-2*1D" style="rounded=0;whiteSpace=wrap;html=1;fontSize=20;" vertex="1" parent="1">
          <mxGeometry x="730" y="410" width="160" height="40" as="geometry" />
        </mxCell>
        <mxCell id="zIC0fdWN-UC4whQMhTlF-69" style="edgeStyle=orthogonalEdgeStyle;rounded=0;orthogonalLoop=1;jettySize=auto;html=1;entryX=0;entryY=0.5;entryDx=0;entryDy=0;" edge="1" parent="1" source="zIC0fdWN-UC4whQMhTlF-59" target="zIC0fdWN-UC4whQMhTlF-66">
          <mxGeometry relative="1" as="geometry" />
        </mxCell>
        <mxCell id="zIC0fdWN-UC4whQMhTlF-59" value="特征图匹配-2D" style="rounded=0;whiteSpace=wrap;html=1;fontSize=20;" vertex="1" parent="1">
          <mxGeometry x="730" y="457" width="160" height="40" as="geometry" />
        </mxCell>
        <mxCell id="zIC0fdWN-UC4whQMhTlF-70" style="edgeStyle=orthogonalEdgeStyle;rounded=0;orthogonalLoop=1;jettySize=auto;html=1;entryX=0;entryY=0.5;entryDx=0;entryDy=0;" edge="1" parent="1" source="zIC0fdWN-UC4whQMhTlF-63" target="zIC0fdWN-UC4whQMhTlF-66">
          <mxGeometry relative="1" as="geometry" />
        </mxCell>
        <mxCell id="zIC0fdWN-UC4whQMhTlF-63" value="点云匹配-3D" style="rounded=0;whiteSpace=wrap;html=1;fontSize=20;" vertex="1" parent="1">
          <mxGeometry x="730" y="503" width="160" height="40" as="geometry" />
        </mxCell>
        <mxCell id="zIC0fdWN-UC4whQMhTlF-71" style="edgeStyle=orthogonalEdgeStyle;rounded=0;orthogonalLoop=1;jettySize=auto;html=1;entryX=0;entryY=0.5;entryDx=0;entryDy=0;" edge="1" parent="1" source="zIC0fdWN-UC4whQMhTlF-64" target="zIC0fdWN-UC4whQMhTlF-66">
          <mxGeometry relative="1" as="geometry" />
        </mxCell>
        <mxCell id="zIC0fdWN-UC4whQMhTlF-64" value="多帧信号&amp;amp;滤波速度" style="rounded=0;whiteSpace=wrap;html=1;fontSize=17;" vertex="1" parent="1">
          <mxGeometry x="730" y="549" width="160" height="45" as="geometry" />
        </mxCell>
        <mxCell id="zIC0fdWN-UC4whQMhTlF-65" value="Output" style="rounded=0;whiteSpace=wrap;html=1;fontSize=18;fontStyle=1;fillColor=#f5f5f5;fontColor=#333333;strokeColor=#666666;" vertex="1" parent="1">
          <mxGeometry x="1515" y="400" width="120" height="200" as="geometry" />
        </mxCell>
        <mxCell id="zIC0fdWN-UC4whQMhTlF-66" value="Learning模块" style="rounded=0;whiteSpace=wrap;html=1;fontSize=20;" vertex="1" parent="1">
          <mxGeometry x="1030" y="475" width="160" height="50" as="geometry" />
        </mxCell>
      </root>
    </mxGraphModel>
  </diagram>
</mxfile>
